<svg xmlns="http://www.w3.org/2000/svg" data-name="Layer 1" viewBox="0 0 512 512"><path fill="#fed402" d="M234.37,382.94l40.39-161.61c12.8-51.22,74.08-71.61,114.6-38.14l77.06,63.68-64.85-22.42c-16.57-1.91-25.88,2.2-31.23,6.15-25.85,19.06-22.22,80.45,13.2,152.34Z"/><ellipse cx="467.78" cy="239.33" fill="#97d729" rx="36.72" ry="37.03"/><path fill="#97d729" d="M277.63,382.94,237.24,221.33c-12.8-51.22-74.08-71.61-114.6-38.14L45.58,246.87l64.85-22.42c16.57-1.91,25.88,2.2,31.23,6.15,25.85,19.06,22.22,80.45-13.2,152.34Z"/><ellipse cx="44.22" cy="239.33" fill="#fed402" rx="36.72" ry="37.03"/><path fill="#8bc727" d="M237.24,221.33a71.18,71.18,0,0,0-38.74-47.55,285.05,285.05,0,0,1-5.43,76.73,286.5,286.5,0,0,1-41.69,99.58l-21.69,32.85H277.63Z"/><path fill="#fac600" d="M355.62,382.94l0-16.38a422.44,422.44,0,0,0-26.93-147.92,423.4,423.4,0,0,0-18.87-43,71.11,71.11,0,0,0-35,45.65L234.37,382.94Z"/><path fill="#fd4755" d="M176.42,366.63a318,318,0,0,0,46-110c15.56-74.25.27-135.34-9.26-164.72a395,395,0,0,1,87.39,137.24,394.08,394.08,0,0,1,25,137.45Z"/><path fill="#fb2b3a" d="M300.56,229.18A395,395,0,0,0,213.17,91.94c2.58,8,5.59,18.3,8.29,30.57a392.72,392.72,0,0,1,49.1,91.67,389.84,389.84,0,0,1,15.27,51c10,44.26-23.48,86.42-68.87,86.42H185.74c-3.23,5.53-6.37,10.53-9.32,15H325.58A394.08,394.08,0,0,0,300.56,229.18Z"/><ellipse cx="212.78" cy="89.33" fill="#af66da" rx="36.72" ry="37.03"/><path fill="#9857bd" d="M228.83,56a37.45,37.45,0,0,1,1.3,9.77,36.88,36.88,0,0,1-36.72,37,36.34,36.34,0,0,1-16-3.72A36.77,36.77,0,1,0,228.83,56Z"/><path fill="#8bc727" d="M483.83,206a37.45,37.45,0,0,1,1.3,9.77,36.88,36.88,0,0,1-36.72,37,36.34,36.34,0,0,1-16.05-3.72A36.77,36.77,0,1,0,483.83,206Z"/><path fill="#fac600" d="M60.26,206a37,37,0,0,1-35.41,46.8,36.31,36.31,0,0,1-16-3.72A36.77,36.77,0,1,0,60.26,206Z"/><rect width="312.97" height="76.9" x="99.51" y="366.63" fill="#af66da" rx="20"/><path fill="#9857bd" d="M392.49,366.63H381.83a20.1,20.1,0,0,1,.66,5h0a56.91,56.91,0,0,1-56.9,56.9H100.17a20,20,0,0,0,19.34,15h273a20,20,0,0,0,20-20v-36.9A20,20,0,0,0,392.49,366.63Z"/><path d="M467.78,194.8a44,44,0,0,0-33.63,15.67l-40-33.06a77.63,77.63,0,0,0-59.62-17.48,79.67,79.67,0,0,0-46.45,22.8,401.44,401.44,0,0,0-41.74-64.45,44.13,44.13,0,1,0-33.55,15.57c1.11,0,2.21,0,3.3-.13a316.91,316.91,0,0,1,5.29,46.55,79.27,79.27,0,0,0-40.16-19.78,77.31,77.31,0,0,0-63.35,16.92l-40,33.06A44,44,0,0,0,44.22,194.8,44.53,44.53,0,1,0,88.42,240l23.67-8.18c10.8-1.12,19.25.5,25.12,4.83,16.87,12.44,21.85,55.93-6.13,122.49H119.51A27.54,27.54,0,0,0,92,386.63v36.9a27.54,27.54,0,0,0,27.5,27.5h273a27.54,27.54,0,0,0,27.5-27.5v-36.9a27.54,27.54,0,0,0-27.5-27.5H380.92c-28-66.56-23-110-6.13-122.49,5.87-4.33,14.32-5.95,25.12-4.83L423.58,240a44.22,44.22,0,1,0,44.2-45.19ZM44.22,268.85a29.53,29.53,0,1,1,29.22-29.52A29.4,29.4,0,0,1,44.22,268.85Zm249.32-37A384.73,384.73,0,0,1,318,359.13H190a323.17,323.17,0,0,0,39.77-100.94,321.22,321.22,0,0,0,6.62-54.38,7.55,7.55,0,0,0,.14-3.72A329.4,329.4,0,0,0,230.65,130a43.11,43.11,0,0,0,4.17-2.14A385.62,385.62,0,0,1,293.54,231.81Zm-80.76-113A29.53,29.53,0,1,1,242,89.33,29.4,29.4,0,0,1,212.78,118.85ZM146.11,224.56c-9.16-6.75-21.45-9.3-36.53-7.57a7.91,7.91,0,0,0-1.6.37l-21.93,7.58c-.15-.47-.31-.93-.49-1.38L127.42,189a62.48,62.48,0,0,1,51.22-13.71,63.88,63.88,0,0,1,42.75,28.09,305.72,305.72,0,0,1-6.3,51.76,308.72,308.72,0,0,1-42.76,104h-25C172.5,296,172.28,243.86,146.11,224.56ZM376,374.13h16.53a12.52,12.52,0,0,1,12.5,12.5v36.9a12.52,12.52,0,0,1-12.5,12.5h-273a12.52,12.52,0,0,1-12.5-12.5v-36.9a12.52,12.52,0,0,1,12.5-12.5H376Zm50-149.19L404,217.36a7.91,7.91,0,0,0-1.6-.37c-15.08-1.73-27.37.82-36.53,7.57-26.17,19.3-26.39,71.47-1.18,134.57H333a400,400,0,0,0-25.39-132.59q-5.61-15-12.39-29.38a64.44,64.44,0,0,1,41.18-22.35A62.77,62.77,0,0,1,384.58,189l41.86,34.58C426.26,224,426.1,224.47,426,224.94Zm41.83,43.91A29.53,29.53,0,1,1,497,239.33,29.4,29.4,0,0,1,467.78,268.85Z"/></svg>